# xmcd CD database file
#
# Track frame offsets:
#	150
#	16221
#	36472
#	57177
#	77759
#	89842
#	107006
#	125373
#	139684
#	156702
#	169691
#	197134
#
# Disc length: 2960 seconds
#
# Revision: 0
# Processed by: cddbd v1.5.2PL0 Copyright (c) Steve Scherf et al.
# Submitted via: CDex 1.70beta2
#
DISCID=a60b8e0c
DTITLE=The Bluuster - No More Standing Still
DYEAR=2008
DGENRE=Blues
TTITLE0=If I Leave This World Tomorrow
TTITLE1=Redemption
TTITLE2=Doing My Time
TTITLE3=Sing Me Back Home
TTITLE4=Walk With Me Lord
TTITLE5=The Other Side
TTITLE6=No More Standing Still
TTITLE7=Farmer´s Blues
TTITLE8=Didn´t Do Me No Good
TTITLE9=Will The Cicle Be Unbroken
TTITLE10=Saviour
TTITLE11=Son Of God
EXTD=YEAR: 2008
EXTT0=
EXTT1=
EXTT2=
EXTT3=
EXTT4=
EXTT5=
EXTT6=
EXTT7=
EXTT8=
EXTT9=
EXTT10=
EXTT11=
PLAYORDER=
